<svg xmlns="http://www.w3.org/2000/svg" version="1.1" xmlns:xlink="http://www.w3.org/1999/xlink" xmlns:svgjs="http://svgjs.dev/svgjs" width="1280" height="650" preserveAspectRatio="none" viewBox="0 0 1280 650">
    <g mask="url(&quot;#SvgjsMask1234&quot;)" fill="none">
        <rect width="1280" height="650" x="0" y="0" fill="url(&quot;#SvgjsLinearGradient1235&quot;)"></rect>
        <path d="M1343.9999999999998 650L0 650 L0 452.95Q32.51 421.46, 64 453.97Q124.94 408.25, 170.66666666666666 469.19Q186.28 420.8, 234.66666666666666 436.41Q251.23 388.98, 298.66666666666663 405.54Q358.3 358.51, 405.33333333333326 418.14Q465.17 413.98, 469.33333333333326 473.81Q528.34 426.15, 575.9999999999999 485.16Q587.43 432.59, 639.9999999999999 444.02Q675.63 372.98, 746.6666666666665 408.61Q785.59 383.53, 810.6666666666665 422.45Q873.95 421.73, 874.6666666666665 485.01Q914.94 418.62, 981.3333333333331 458.89Q987.94 401.5, 1045.333333333333 408.1Q1103.96 360.06, 1151.9999999999998 418.68Q1209.88 412.56, 1215.9999999999998 470.45Q1232.56 423.01, 1279.9999999999998 439.58Q1291.63 387.22, 1343.9999999999998 398.85z" fill="rgba(26, 30, 75, 1)"></path>
        <path d="M1386.6666666666667 650L0 650 L0 504Q36.44 476.44, 64 512.89Q94.67 436.89, 170.66666666666666 467.56Q232.07 422.3, 277.3333333333333 483.71Q355.52 455.23, 384 533.42Q385.44 470.86, 448 472.29Q535.81 453.44, 554.6666666666666 541.25Q568.26 448.18, 661.3333333333333 461.77Q719.98 413.75, 767.9999999999999 472.4Q848.44 446.17, 874.6666666666665 526.61Q894.33 482.27, 938.6666666666665 501.94Q975.61 432.22, 1045.3333333333333 469.17Q1086.44 446.27, 1109.3333333333333 487.38Q1172.05 443.43, 1216 506.15Q1231.08 457.23, 1280 472.31Q1342.75 428.39, 1386.6666666666667 491.14z" fill="rgba(37, 70, 125, 1)"></path>
        <path d="M1344 650L0 650 L0 525.86Q61.3 480.49, 106.66666666666666 541.79Q173.93 502.39, 213.33333333333331 569.66Q224.82 517.15, 277.3333333333333 528.64Q343.39 488.03, 384 554.09Q447.06 510.49, 490.66666666666663 573.55Q552.5 528.72, 597.3333333333333 590.56Q605.9 535.13, 661.3333333333333 543.7Q723.36 499.06, 767.9999999999999 561.08Q832.68 519.09, 874.6666666666665 583.77Q912.86 557.96, 938.6666666666665 596.15Q945.11 538.59, 1002.6666666666665 545.03Q1025.73 504.09, 1066.6666666666665 527.15Q1114.54 511.02, 1130.6666666666665 558.9Q1174.06 495.63, 1237.3333333333333 539.02Q1313.81 508.83, 1344 585.31z" fill="rgba(53, 108, 177, 1)"></path>
        <path d="M1344 650L0 650 L0 600.66Q60.38 554.37, 106.66666666666666 614.75Q184.28 585.7, 213.33333333333331 663.31Q229.22 615.2, 277.3333333333333 631.09Q288.6 578.36, 341.3333333333333 589.63Q381.43 565.73, 405.3333333333333 605.83Q466.21 560.04, 512 620.91Q591.24 593.49, 618.6666666666666 672.73Q635.88 583.28, 725.3333333333333 600.5Q751.88 563.05, 789.3333333333333 589.6Q882.5 576.1, 895.9999999999999 669.26Q914.48 623.75, 959.9999999999999 642.23Q972.9 591.13, 1023.9999999999999 604.03Q1069.09 542.45, 1130.6666666666665 587.54Q1212.11 562.32, 1237.3333333333333 643.76Q1295.78 595.54, 1344 653.98z" fill="rgba(1, 77, 187, 1)"></path>
    </g>
    <defs>
        <mask id="SvgjsMask1234">
            <rect width="1280" height="650" fill="#ffffff"></rect>
        </mask>
        <linearGradient x1="50%" y1="0%" x2="50%" y2="100%" gradientUnits="userSpaceOnUse" id="SvgjsLinearGradient1235">
            <stop stop-color="rgba(53, 39, 84, 1)" offset="0.22"></stop>
            <stop stop-color="rgba(246, 163, 111, 1)" offset="0.98"></stop>
        </linearGradient>
    </defs>
</svg>