<svg id="visual" viewBox="0 0 960 540" width="960" height="540" xmlns="http://www.w3.org/2000/svg" xmlns:xlink="http://www.w3.org/1999/xlink" version="1.1"><path d="M0 131L14.5 127.3C29 123.7 58 116.3 87.2 117.2C116.3 118 145.7 127 174.8 138.7C204 150.3 233 164.7 262 167.3C291 170 320 161 349 162C378 163 407 174 436.2 180.3C465.3 186.7 494.7 188.3 523.8 182C553 175.7 582 161.3 611 153.2C640 145 669 143 698 144.8C727 146.7 756 152.3 785.2 140.7C814.3 129 843.7 100 872.8 90C902 80 931 89 945.5 93.5L960 98L960 0L945.5 0C931 0 902 0 872.8 0C843.7 0 814.3 0 785.2 0C756 0 727 0 698 0C669 0 640 0 611 0C582 0 553 0 523.8 0C494.7 0 465.3 0 436.2 0C407 0 378 0 349 0C320 0 291 0 262 0C233 0 204 0 174.8 0C145.7 0 116.3 0 87.2 0C58 0 29 0 14.5 0L0 0Z" fill="#6198ff"></path><path d="M0 179L14.5 174.5C29 170 58 161 87.2 164.7C116.3 168.3 145.7 184.7 174.8 195.5C204 206.3 233 211.7 262 213.5C291 215.3 320 213.7 349 225.3C378 237 407 262 436.2 277.2C465.3 292.3 494.7 297.7 523.8 283.3C553 269 582 235 611 222.5C640 210 669 219 698 219C727 219 756 210 785.2 201.8C814.3 193.7 843.7 186.3 872.8 185.3C902 184.3 931 189.7 945.5 192.3L960 195L960 96L945.5 91.5C931 87 902 78 872.8 88C843.7 98 814.3 127 785.2 138.7C756 150.3 727 144.7 698 142.8C669 141 640 143 611 151.2C582 159.3 553 173.7 523.8 180C494.7 186.3 465.3 184.7 436.2 178.3C407 172 378 161 349 160C320 159 291 168 262 165.3C233 162.7 204 148.3 174.8 136.7C145.7 125 116.3 116 87.2 115.2C58 114.3 29 121.7 14.5 125.3L0 129Z" fill="#4385ff"></path><path d="M0 276L14.5 277C29 278 58 280 87.2 276.5C116.3 273 145.7 264 174.8 267.5C204 271 233 287 262 298.7C291 310.3 320 317.7 349 323.2C378 328.7 407 332.3 436.2 338.7C465.3 345 494.7 354 523.8 349.5C553 345 582 327 611 318.8C640 310.7 669 312.3 698 306C727 299.7 756 285.3 785.2 278.2C814.3 271 843.7 271 872.8 275.5C902 280 931 289 945.5 293.5L960 298L960 193L945.5 190.3C931 187.7 902 182.3 872.8 183.3C843.7 184.3 814.3 191.7 785.2 199.8C756 208 727 217 698 217C669 217 640 208 611 220.5C582 233 553 267 523.8 281.3C494.7 295.7 465.3 290.3 436.2 275.2C407 260 378 235 349 223.3C320 211.7 291 213.3 262 211.5C233 209.7 204 204.3 174.8 193.5C145.7 182.7 116.3 166.3 87.2 162.7C58 159 29 168 14.5 172.5L0 177Z" fill="#2071ff"></path><path d="M0 384L14.5 394.8C29 405.7 58 427.3 87.2 440C116.3 452.7 145.7 456.3 174.8 460C204 463.7 233 467.3 262 462C291 456.7 320 442.3 349 437.8C378 433.3 407 438.7 436.2 446.7C465.3 454.7 494.7 465.3 523.8 461.7C553 458 582 440 611 431C640 422 669 422 698 419.3C727 416.7 756 411.3 785.2 417.7C814.3 424 843.7 442 872.8 444.7C902 447.3 931 434.7 945.5 428.3L960 422L960 296L945.5 291.5C931 287 902 278 872.8 273.5C843.7 269 814.3 269 785.2 276.2C756 283.3 727 297.7 698 304C669 310.3 640 308.7 611 316.8C582 325 553 343 523.8 347.5C494.7 352 465.3 343 436.2 336.7C407 330.3 378 326.7 349 321.2C320 315.7 291 308.3 262 296.7C233 285 204 269 174.8 265.5C145.7 262 116.3 271 87.2 274.5C58 278 29 276 14.5 275L0 274Z" fill="#0061f1"></path><path d="M0 460L14.5 465.3C29 470.7 58 481.3 87.2 486.7C116.3 492 145.7 492 174.8 494.8C204 497.7 233 503.3 262 504.3C291 505.3 320 501.7 349 500.7C378 499.7 407 501.3 436.2 503.2C465.3 505 494.7 507 523.8 506.2C553 505.3 582 501.7 611 494.3C640 487 669 476 698 470.5C727 465 756 465 785.2 470.5C814.3 476 843.7 487 872.8 488C902 489 931 480 945.5 475.5L960 471L960 420L945.5 426.3C931 432.7 902 445.3 872.8 442.7C843.7 440 814.3 422 785.2 415.7C756 409.3 727 414.7 698 417.3C669 420 640 420 611 429C582 438 553 456 523.8 459.7C494.7 463.3 465.3 452.7 436.2 444.7C407 436.7 378 431.3 349 435.8C320 440.3 291 454.7 262 460C233 465.3 204 461.7 174.8 458C145.7 454.3 116.3 450.7 87.2 438C58 425.3 29 403.7 14.5 392.8L0 382Z" fill="#0056d6"></path><path d="M0 541L14.5 541C29 541 58 541 87.2 541C116.3 541 145.7 541 174.8 541C204 541 233 541 262 541C291 541 320 541 349 541C378 541 407 541 436.2 541C465.3 541 494.7 541 523.8 541C553 541 582 541 611 541C640 541 669 541 698 541C727 541 756 541 785.2 541C814.3 541 843.7 541 872.8 541C902 541 931 541 945.5 541L960 541L960 469L945.5 473.5C931 478 902 487 872.8 486C843.7 485 814.3 474 785.2 468.5C756 463 727 463 698 468.5C669 474 640 485 611 492.3C582 499.7 553 503.3 523.8 504.2C494.7 505 465.3 503 436.2 501.2C407 499.3 378 497.7 349 498.7C320 499.7 291 503.3 262 502.3C233 501.3 204 495.7 174.8 492.8C145.7 490 116.3 490 87.2 484.7C58 479.3 29 468.7 14.5 463.3L0 458Z" fill="#004cbb"></path></svg>