<svg id="visual" viewBox="0 0 900 600" width="900" height="600" xmlns="http://www.w3.org/2000/svg" xmlns:xlink="http://www.w3.org/1999/xlink" version="1.1">
  <path d="M0 520L21.5 525C43 530 86 540 128.8 546.2C171.7 552.3 214.3 554.7 257.2 548.3C300 542 343 527 385.8 527.5C428.7 528 471.3 544 514.2 551.2C557 558.3 600 556.7 642.8 548.7C685.7 540.7 728.3 526.3 771.2 519.8C814 513.3 857 514.7 878.5 515.3L900 516L900 601L878.5 601C857 601 814 601 771.2 601C728.3 601 685.7 601 642.8 601C600 601 557 601 514.2 601C471.3 601 428.7 601 385.8 601C343 601 300 601 257.2 601C214.3 601 171.7 601 128.8 601C86 601 43 601 21.5 601L0 601Z" fill="#014DBB" stroke-linecap="round" stroke-linejoin="miter"></path>
</svg>
